<?xml version="1.0" encoding="UTF-8" standalone="no"?>
<!-- Generator: Fusion 360, Shaper Origin Export Add-In, Version 1.7.0  -->

<svg
        shaper:fusionaddin="version:1.7.0"
        width="4.5cm"
        height="6.4118943cm"
        version="1.1"
        x="0cm"
        y="0cm"
        viewBox="0 0 4.5 6.4118945"
        enable-background="new 0 0 4.5 6.411895"
        xml:space="preserve"
        id="svg24"
        sodipodi:docname="inkscape_logo.svg"
        xmlns:inkscape="http://www.inkscape.org/namespaces/inkscape"
        xmlns:sodipodi="http://sodipodi.sourceforge.net/DTD/sodipodi-0.dtd"
        xmlns="http://www.w3.org/2000/svg"
        xmlns:shaper="http://www.shapertools.com/namespaces/shaper"><defs
     id="defs28" />
    <sodipodi:namedview
            id="namedview26"
            pagecolor="#ffffff"
            bordercolor="#000000"
            borderopacity="0.25"
            inkscape:showpageshadow="2"
            inkscape:pageopacity="0.0"
            inkscape:pagecheckerboard="0"
            inkscape:deskcolor="#d1d1d1"
            inkscape:document-units="cm"
            showgrid="false"
            inkscape:zoom="2.4188873"
            inkscape:cx="-10.335331"
            inkscape:cy="95.498456"
            inkscape:window-width="1920"
            inkscape:window-height="1129"
            inkscape:window-x="3832"
            inkscape:window-y="-8"
            inkscape:window-maximized="1"
            inkscape:current-layer="svg24"/>
    <path
            d="M 2,2 A 0.5,0.5 0 1 0 3,2 0.5,0.5 0 1 0 2,2 Z"
            stroke="rgb(100,100,100)"
            stroke-width="0.001cm"
            stroke-linecap="round"
            stroke-linejoin="round"
            fill="none"
            id="path16"
            style="fill:#ec2025;fill-opacity:1;stroke:none"/>
    <path
            d="m 2,3.161895 v 1.75 a 0.5,0.5 0 0 1 -1,0 0.5,0.5 0 0 0 -1,0 1.5,1.5 0 0 0 3,0 v -1.75 a 0.2,0.2 0 0 0 -0.25,-0.1936492 1,1 0 0 1 -0.5,0 A 0.2,0.2 0 0 0 2,3.161895 Z"
            stroke="rgb(100,100,100)"
            stroke-width="0.001cm"
            stroke-linecap="round"
            stroke-linejoin="round"
            fill="none"
            id="path18"
            style="fill:#ec2025;fill-opacity:1;stroke:none"/>
    <path
            d="M 3.3178013,2.9453576 A 0.125,0.125 0 0 1 3.154241,2.7562861 a 1,1 0 1 0 -1.308482,0 0.125,0.125 0 1 1 -0.1635603,0.1890715 1.25,1.25 0 1 1 1.6356026,0 z"
            stroke="rgb(100,100,100)"
            stroke-width="0.001cm"
            stroke-linecap="round"
            stroke-linejoin="round"
            fill="none"
            id="path20"
            style="fill:#0d8ac7;fill-opacity:1;stroke:none"/>
    <path
            d="m 3.7397035,3.5694378 a 0.125,0.125 0 0 1 -0.1549629,-0.1961797 1.75,1.75 0 1 0 -2.1694812,0 0.125,0.125 0 0 1 -0.1549629,0.1961797 2,2 0 1 1 2.479407,0 z"
            stroke="rgb(100,100,100)"
            stroke-width="0.001cm"
            stroke-linecap="round"
            stroke-linejoin="round"
            fill="none"
            id="path22"
            style="fill:#0d8ac7;fill-opacity:1;stroke:none"/></svg>
