<?xml version="1.0" encoding="UTF-8" standalone="no"?>
<!-- Generator: Fusion 360, Shaper Origin Export Add-In, Version 1.7.0  -->

<svg
   shaper:fusionaddin="version:1.7.0"
   width="4.5cm"
   height="6.411895cm"
   version="1.1"
   x="0cm"
   y="0cm"
   viewBox="0 0 4.5 6.411895"
   enable-background="new 0 0 4.5 6.411895"
   xml:space="preserve"
   id="svg24"
   sodipodi:docname="inkscape_logo.svg"
   inkscape:version="1.2.2 (732a01da63, 2022-12-09)"
   xmlns:inkscape="http://www.inkscape.org/namespaces/inkscape"
   xmlns:sodipodi="http://sodipodi.sourceforge.net/DTD/sodipodi-0.dtd"
   xmlns="http://www.w3.org/2000/svg"
   xmlns:svg="http://www.w3.org/2000/svg"
   xmlns:shaper="http://www.shapertools.com/namespaces/shaper"><defs
     id="defs28" /><sodipodi:namedview
     id="namedview26"
     pagecolor="#ffffff"
     bordercolor="#000000"
     borderopacity="0.25"
     inkscape:showpageshadow="2"
     inkscape:pageopacity="0.0"
     inkscape:pagecheckerboard="0"
     inkscape:deskcolor="#d1d1d1"
     inkscape:document-units="cm"
     showgrid="false"
     inkscape:zoom="2.4188873"
     inkscape:cx="7.0280249"
     inkscape:cy="95.498456"
     inkscape:window-width="1920"
     inkscape:window-height="1009"
     inkscape:window-x="1912"
     inkscape:window-y="352"
     inkscape:window-maximized="1"
     inkscape:current-layer="svg24" /><path
     d="M-0.5,0 a0.5,0.5 0 1,1 1,0 a0.5,0.5 0 1,1 -1,0z"
     transform="matrix(1,0,0,-1,2.5,2)"
     stroke="rgb(100,100,100)"
     stroke-width="0.0010cm"
     stroke-linecap="round"
     stroke-linejoin="round"
     fill="none"
     id="path16"
     style="fill:#ec2025;fill-opacity:1;stroke:none" /><path
     d="M-0.5,-1.161895 L-0.5,-2.911895 A0.5,0.5 0 0,0 -1.5,-2.911895 A0.5,0.5 0 0,1 -2.5,-2.911895 A1.5,1.5 180 0,1 0.5,-2.911895 L0.5,-1.161895 A0.2,0.2 0 0,1 0.25,-0.9682458 A1,1 284.4775122 0,0 -0.25,-0.9682458 A0.2,0.2 75.5224878 0,1 -0.5,-1.161895z"
     transform="matrix(1,0,0,-1,2.5,2)"
     stroke="rgb(100,100,100)"
     stroke-width="0.0010cm"
     stroke-linecap="round"
     stroke-linejoin="round"
     fill="none"
     id="path18"
     style="stroke:none;fill:#ec2025;fill-opacity:1" /><path
     d="M0.8178013,-0.9453576 A0.125,0.125 310.8621273 0,0 0.654241,-0.7562861 A1,1 310.8621273 1,1 -0.654241,-0.7562861 A0.125,0.125 49.1378727 1,0 -0.8178013,-0.9453576 A1.25,1.25 229.1378727 1,0 0.8178013,-0.9453576z"
     transform="matrix(1,0,0,-1,2.5,2)"
     stroke="rgb(100,100,100)"
     stroke-width="0.0010cm"
     stroke-linecap="round"
     stroke-linejoin="round"
     fill="none"
     id="path20"
     style="fill:#0d8ac7;fill-opacity:1;stroke:none" /><path
     d="M1.2397035,-1.5694378 A0.125,0.125 308.3053108 0,0 1.0847406,-1.3732581 A1.75,1.75 308.3053108 1,1 -1.0847406,-1.3732581 A0.125,0.125 51.6946892 0,0 -1.2397035,-1.5694378 A2,2 231.6946892 1,0 1.2397035,-1.5694378z"
     transform="matrix(1,0,0,-1,2.5,2)"
     stroke="rgb(100,100,100)"
     stroke-width="0.0010cm"
     stroke-linecap="round"
     stroke-linejoin="round"
     fill="none"
     id="path22"
     style="stroke:none;fill:#0d8ac7;fill-opacity:1" /></svg>
